<svg id="Beacon" xmlns="http://www.w3.org/2000/svg" width="1298" height="1840" viewBox="0 0 1298 1840">
  <defs>
    <style>
      .cls-1 {
        fill: #464646;
      }

      .cls-1, .cls-3 {
        fill-rule: evenodd;
      }

      .cls-2, .cls-3 {
        fill: #c8c8c8;
      }
    </style>
  </defs>
  <path id="Rounded_Rectangle_6" class="cls-1" d="M632.944,0.269h33.709c246.4,0,485.277,164.022,525.367,420.882l97.05,621.8c62.61,401.16-212.54,797.06-613.516,797.06H621.44c-400.953,0-675.569-395.87-612.385-797.06l97.93-621.8C147.44,164.283,386.554.269,632.944,0.269Z"/>
  <circle class="cls-2" cx="651.485" cy="1272.33" r="274.296"/>
  <path class="cls-3" d="M953.615,143.709c79.555,46.874,131.605,104.431,116.2,130.189-16.37,36.076-91.321-32.407-163.893-73.063-75.753-27.046-142.585-64.5-124.228-95.868C797.232,79.527,873.986,97.134,953.615,143.709Z"/>
</svg>
