<?xml version="1.0" encoding="UTF-8"?>
<svg xmlns="http://www.w3.org/2000/svg" xmlns:xlink="http://www.w3.org/1999/xlink" width="178pt" height="80pt" viewBox="0 0 178 80" version="1.1">
<g id="surface1">
<path style=" stroke:none;fill-rule:nonzero;fill:rgb(27.843137%,29.803922%,33.333333%);fill-opacity:1;" d="M 57.589844 43.839844 C 57.589844 43.839844 58.90625 45.128906 60.621094 45.128906 C 61.542969 45.128906 62.382812 44.648438 62.382812 43.648438 C 62.382812 41.464844 56.648438 41.839844 56.648438 38.09375 C 56.648438 36.066406 58.398438 34.546875 60.722656 34.546875 C 63.121094 34.546875 64.355469 35.855469 64.355469 35.855469 L 63.394531 37.660156 C 63.394531 37.660156 62.230469 36.59375 60.707031 36.59375 C 59.679688 36.59375 58.875 37.191406 58.875 38.054688 C 58.875 40.222656 64.59375 39.6875 64.59375 43.59375 C 64.59375 45.539062 63.121094 47.171875 60.585938 47.171875 C 57.882812 47.171875 56.390625 45.503906 56.390625 45.503906 Z M 57.589844 43.839844 "/>
<path style=" stroke:none;fill-rule:nonzero;fill:rgb(27.843137%,29.803922%,33.333333%);fill-opacity:1;" d="M 75.328125 34.550781 C 78.90625 34.550781 81.609375 37.289062 81.609375 40.78125 C 81.609375 44.375 78.90625 47.179688 75.328125 47.179688 C 71.746094 47.179688 69.042969 44.375 69.042969 40.78125 C 69.042969 37.285156 71.746094 34.550781 75.328125 34.550781 Z M 75.328125 45.144531 C 77.554688 45.144531 79.332031 43.289062 79.332031 40.777344 C 79.332031 38.367188 77.554688 36.582031 75.328125 36.582031 C 73.101562 36.582031 71.320312 38.367188 71.320312 40.777344 C 71.320312 43.289062 73.101562 45.144531 75.328125 45.144531 Z M 75.328125 45.144531 "/>
<path style=" stroke:none;fill-rule:nonzero;fill:rgb(27.843137%,29.803922%,33.333333%);fill-opacity:1;" d="M 86.296875 34.757812 L 93.28125 34.757812 L 93.28125 36.664062 L 88.503906 36.664062 L 88.503906 40.121094 L 92.523438 40.121094 L 92.523438 42.027344 L 88.503906 42.027344 L 88.503906 46.964844 L 86.292969 46.964844 L 86.292969 34.757812 Z M 86.296875 34.757812 "/>
<path style=" stroke:none;fill-rule:nonzero;fill:rgb(27.843137%,29.803922%,33.333333%);fill-opacity:1;" d="M 98.90625 34.757812 L 101.117188 34.757812 L 101.117188 46.96875 L 98.90625 46.96875 Z M 98.90625 34.757812 "/>
<path style=" stroke:none;fill-rule:nonzero;fill:rgb(27.843137%,29.803922%,33.333333%);fill-opacity:1;" d="M 107.28125 34.757812 L 109.488281 34.757812 L 109.488281 39.933594 L 115.050781 39.933594 L 115.050781 34.757812 L 117.261719 34.757812 L 117.261719 46.96875 L 115.050781 46.96875 L 115.050781 41.84375 L 109.488281 41.84375 L 109.488281 46.96875 L 107.28125 46.96875 Z M 107.28125 34.757812 "/>
<path style=" stroke:none;fill-rule:nonzero;fill:rgb(27.843137%,29.803922%,33.333333%);fill-opacity:1;" d="M 122.851562 34.757812 L 125.0625 34.757812 L 125.0625 42.578125 C 125.0625 44.210938 126.125 45.144531 127.75 45.144531 C 129.375 45.144531 130.453125 44.214844 130.453125 42.5625 L 130.453125 34.757812 L 132.660156 34.757812 L 132.660156 42.578125 C 132.660156 45.316406 130.695312 47.171875 127.765625 47.171875 C 124.816406 47.171875 122.851562 45.316406 122.851562 42.578125 Z M 122.851562 34.757812 "/>
<path style=" stroke:none;fill-rule:nonzero;fill:rgb(27.843137%,29.803922%,33.333333%);fill-opacity:1;" d="M 138.257812 34.757812 L 142.605469 34.757812 C 144.792969 34.757812 146.355469 35.890625 146.355469 37.902344 C 146.355469 39.039062 145.804688 40.019531 144.882812 40.519531 L 144.882812 40.554688 C 146.214844 40.953125 146.851562 42.1875 146.851562 43.425781 C 146.851562 45.871094 144.902344 46.972656 142.65625 46.972656 L 138.257812 46.972656 Z M 142.609375 39.742188 C 143.566406 39.742188 144.113281 39.054688 144.113281 38.179688 C 144.113281 37.304688 143.597656 36.667969 142.570312 36.667969 L 140.464844 36.667969 L 140.464844 39.746094 L 142.609375 39.746094 Z M 142.828125 45.058594 C 143.957031 45.058594 144.589844 44.320312 144.589844 43.289062 C 144.589844 42.273438 143.941406 41.53125 142.828125 41.53125 L 140.464844 41.53125 L 140.464844 45.054688 L 142.828125 45.054688 Z M 142.828125 45.058594 "/>
<path style=" stroke:none;fill-rule:nonzero;fill:rgb(39.215686%,79.607843%,90.980392%);fill-opacity:1;" d="M 64.933594 11.726562 C 64.933594 12.097656 64.636719 12.394531 64.269531 12.394531 C 63.902344 12.394531 63.605469 12.097656 63.605469 11.726562 C 63.605469 11.359375 63.902344 11.058594 64.269531 11.058594 C 64.636719 11.058594 64.933594 11.359375 64.933594 11.726562 Z M 64.933594 11.726562 "/>
<path style=" stroke:none;fill-rule:nonzero;fill:rgb(39.215686%,79.607843%,90.980392%);fill-opacity:1;" d="M 69.496094 12.539062 C 69.496094 12.980469 69.136719 13.339844 68.699219 13.339844 C 68.257812 13.339844 67.902344 12.980469 67.902344 12.539062 C 67.902344 12.097656 68.257812 11.738281 68.699219 11.738281 C 69.136719 11.738281 69.496094 12.097656 69.496094 12.539062 Z M 69.496094 12.539062 "/>
<path style=" stroke:none;fill-rule:nonzero;fill:rgb(39.215686%,79.607843%,90.980392%);fill-opacity:1;" d="M 73.855469 14.074219 C 73.855469 14.589844 73.4375 15.007812 72.925781 15.007812 C 72.414062 15.007812 72 14.589844 72 14.074219 C 72 13.5625 72.414062 13.144531 72.925781 13.144531 C 73.4375 13.144531 73.855469 13.5625 73.855469 14.074219 Z M 73.855469 14.074219 "/>
<path style=" stroke:none;fill-rule:nonzero;fill:rgb(39.215686%,79.607843%,90.980392%);fill-opacity:1;" d="M 77.902344 16.296875 C 77.902344 16.882812 77.429688 17.359375 76.84375 17.359375 C 76.257812 17.359375 75.785156 16.882812 75.785156 16.296875 C 75.785156 15.707031 76.257812 15.230469 76.84375 15.230469 C 77.429688 15.230469 77.902344 15.707031 77.902344 16.296875 Z M 77.902344 16.296875 "/>
<path style=" stroke:none;fill-rule:nonzero;fill:rgb(39.215686%,79.607843%,90.980392%);fill-opacity:1;" d="M 81.402344 19.140625 C 81.402344 19.726562 80.929688 20.203125 80.34375 20.203125 C 79.757812 20.203125 79.285156 19.726562 79.285156 19.140625 C 79.285156 18.550781 79.757812 18.074219 80.34375 18.074219 C 80.929688 18.074219 81.402344 18.550781 81.402344 19.140625 Z M 81.402344 19.140625 "/>
<path style=" stroke:none;fill-rule:nonzero;fill:rgb(39.215686%,79.607843%,90.980392%);fill-opacity:1;" d="M 84.519531 22.527344 C 84.519531 23.1875 83.984375 23.726562 83.328125 23.726562 C 82.667969 23.726562 82.132812 23.1875 82.132812 22.527344 C 82.132812 21.863281 82.667969 21.328125 83.328125 21.328125 C 83.984375 21.328125 84.519531 21.863281 84.519531 22.527344 Z M 84.519531 22.527344 "/>
<path style=" stroke:none;fill-rule:nonzero;fill:rgb(39.215686%,79.607843%,90.980392%);fill-opacity:1;" d="M 86.898438 26.359375 C 86.898438 27.019531 86.363281 27.558594 85.703125 27.558594 C 85.042969 27.558594 84.507812 27.019531 84.507812 26.359375 C 84.507812 25.695312 85.042969 25.15625 85.703125 25.15625 C 86.363281 25.15625 86.898438 25.695312 86.898438 26.359375 Z M 86.898438 26.359375 "/>
<path style=" stroke:none;fill-rule:nonzero;fill:rgb(39.215686%,79.607843%,90.980392%);fill-opacity:1;" d="M 88.746094 30.539062 C 88.746094 31.273438 88.152344 31.867188 87.417969 31.867188 C 86.6875 31.867188 86.09375 31.273438 86.09375 30.539062 C 86.09375 29.800781 86.6875 29.207031 87.417969 29.207031 C 88.152344 29.207031 88.746094 29.800781 88.746094 30.539062 Z M 88.746094 30.539062 "/>
<path style=" stroke:none;fill-rule:nonzero;fill:rgb(39.215686%,79.607843%,90.980392%);fill-opacity:1;" d="M 85.933594 50.664062 C 81.882812 60.832031 71.980469 68.035156 60.425781 68.035156 C 45.273438 68.035156 32.953125 55.65625 32.953125 40.441406 C 32.953125 25.222656 45.273438 12.84375 60.425781 12.84375 L 60.425781 12.839844 C 60.542969 12.839844 60.667969 12.828125 60.785156 12.789062 C 61.414062 12.585938 61.761719 11.910156 61.5625 11.28125 C 61.398438 10.769531 60.929688 10.449219 60.425781 10.449219 L 60.425781 10.445312 C 43.960938 10.445312 30.5625 23.898438 30.5625 40.441406 C 30.5625 56.980469 43.960938 70.4375 60.425781 70.4375 C 73.316406 70.4375 84.324219 62.183594 88.5 50.664062 Z M 85.933594 50.664062 "/>
</g>
</svg>
