<svg width="3500" height="3000" xmlns="http://www.w3.org/2000/svg" viewBox="0 0 3500 3000">
 <g>
  <circle r="1400"  id="svg_13" cy="1490" cx="1712" fill="#5f758e"/>
  <g stroke="null"  id="svg_12">
   <path stroke="null" fill-rule="evenodd" fill="#fff" d="m1067.51449,959.95107l1336.59458,0l0,288.43379l-1336.59458,0l0,-288.43379z" class="cls-1" id="Rectangle_3_copy_3"/>
   <path stroke="null" fill="#ececec" fill-rule="evenodd" d="m1134.58298,820.00005l1163.34412,0l0,186.90754l-1163.34412,0l0,-186.90754zm-258.56698,95.54909c17.4786,-49.71218 172.54487,-95.54909 258.56698,-95.54909l0,186.90754c-86.02212,0 -172.04356,0 -247.12089,-2.345c-10.94479,-59.95751 6.32885,-79.29769 -11.4461,-89.01345z" class="cls-2" id="Rectangle_3_copy"/>
   <path stroke="null" id="svg_1" fill="#d2d2d2" fill-rule="evenodd" d="m876.94604,915.0465l257.58923,91.86109l0,372.47996l-232.12061,542.34896l-25.46862,-1006.69001z" class="cls-3"/>
   <path stroke="null" id="svg_2" fill-rule="evenodd" fill="#fff" d="m1581.10973,1272.17982c-221.05957,-225.80341 246.37363,-226.13522 695.73016,-226.52748l0,1091.66131c-443.89992,11.30121 -1163.82863,84.02317 -1313.23065,-46.7489c-143.06981,-141.31111 -71.71668,-669.39098 617.5005,-818.38493zm-441.72266,-265.27223l1158.20403,0l0,1091.15407l-1388.59089,-267.09619l230.38686,-824.05788zm460.51165,0l697.69238,0l0,1140.34061l-697.69238,17.92424l0,-1158.26485z" class="cls-1"/>
   <path stroke="null" fill="#ececec" fill-rule="evenodd" d="m2297.51047,820.00005l-1162.92748,0l0,186.88454l1162.92748,0l0,-186.88454zm258.46955,95.53792c-17.47188,-49.70692 -172.48103,-95.53792 -258.46955,-95.53792l0,186.88454c85.98852,0 171.97703,0 247.03219,-2.34434c10.94008,-59.95029 -6.3302,-79.28784 11.43736,-89.00228z" class="cls-2" id="Rectangle_3_copy_2"/>
   <path stroke="null" fill="#d2d2d2" fill-rule="evenodd" d="m2555.05266,915.03468l-257.49515,91.84992l0,372.43463l232.03997,542.27931l25.45518,-1006.56386z" class="cls-3" id="Rectangle_2_copy"/>
   <path stroke="null" fill-rule="evenodd" fill="#fff" d="m1851.95743,1272.48732c220.93189,-226.11879 -247.42866,-226.3987 -696.56813,-226.75547l0,1094.55823c445.38974,10.32221 1164.10885,81.40813 1313.18428,-49.74503c142.55036,-141.49508 71.9035,-669.36995 -616.61615,-818.05772zm441.24554,-265.60272l-1158.61999,0l0,1094.09435l1388.44238,-270.13175l-229.82239,-823.9626zm-460.02781,0l-698.59218,0l0,1143.4123l698.59218,16.34076l0,-1159.75306z" class="cls-1" id="Rectangle_1_copy"/>
   <path stroke="null" id="svg_3" fill-rule="evenodd" fill="#fff" d="m1426.78467,1878.69994l648.57759,0l0,288.37137l-648.57759,0l0,-288.37137z" class="cls-1"/>
   <path stroke="null" id="svg_4" opacity="0.1" fill="#626262" fill-rule="evenodd" d="m1329.07522,898.58879l103.6546,0l10.19014,65.73558l-124.03555,0l10.19081,-65.73558z" class="cls-4"/>
   <circle stroke="null" id="svg_5" opacity="0.1" fill="#626262" r="130.42384" cy="1287.88981" cx="1715.99935" class="cls-5"/>
  </g>
 </g>
</svg>
